<svg xmlns="http://www.w3.org/2000/svg" viewBox="0 0 451 96" width="451" height="96"><clipPath id="hxh"><path d="M48.00,8.00 L13.36,28.00 L13.36,68.00 L48.00,88.00 L82.64,68.00 L82.64,28.00 Z"/></clipPath>
<rect clip-path="url(#hxh)" x="11.36" y="8.00" width="73.28" height="7.20" fill="#f2f0ee"/>
<rect clip-path="url(#hxh)" x="11.36" y="18.40" width="73.28" height="7.20" fill="#f2f0ee"/>
<rect clip-path="url(#hxh)" x="11.36" y="28.80" width="73.28" height="7.20" fill="#f2f0ee"/>
<rect clip-path="url(#hxh)" x="11.36" y="39.20" width="73.28" height="7.20" fill="#f2f0ee"/>
<rect clip-path="url(#hxh)" x="11.36" y="49.60" width="73.28" height="7.20" fill="#f2f0ee"/>
<rect clip-path="url(#hxh)" x="11.36" y="70.40" width="73.28" height="7.20" fill="#f2f0ee"/>
<rect clip-path="url(#hxh)" x="11.36" y="80.80" width="73.28" height="7.20" fill="#f2f0ee"/>
<path fill="#ff5c1a" d="M13.36 60.00 L86.40 60.00 A3.60 3.60 0 0 1 86.40 67.20 L13.36 67.20 Z"/><g transform="translate(128.00,65.00) scale(0.048571,-0.048571)">
<path transform="translate(0.0,0.0)" fill="#f2f0ee" d="M21.499755859375 0 221.2486572265625 700H410.6514892578125L610.400390625 0H498.5487060546875L452.8492431640625 165.19921875H179.0509033203125L133.3514404296875 0ZM205.501220703125 264.80078125H426.39892578125L323.900146484375 632.7489013671875H308Z"/>
<path transform="translate(628.0,0.0)" fill="#f2f0ee" d="M334.60009765625 -14Q252.4498291015625 -14 192.69970703125 15.7501220703125Q132.9495849609375 45.500244140625 100.62457275390625 102.42535400390625Q68.299560546875 159.3504638671875 68.299560546875 240.0504150390625V700H176.501220703125V237.4503173828125Q176.501220703125 162.9510498046875 217.5509033203125 122.97625732421875Q258.6005859375 83.00146484375 334.60009765625 83.00146484375Q410.599609375 83.00146484375 451.6492919921875 122.97625732421875Q492.698974609375 162.9510498046875 492.698974609375 237.4503173828125V700H600.900634765625V240.0504150390625Q600.900634765625 159.3504638671875 568.7506103515625 102.42535400390625Q536.6005859375 45.500244140625 476.67547607421875 15.7501220703125Q416.7503662109375 -14 334.60009765625 -14Z"/>
<path transform="translate(1305.0,0.0)" fill="#f2f0ee" d="M239.899169921875 0V601.698486328125H25.39990234375V700H562.60009765625V601.698486328125H348.100830078125V0Z"/>
<path transform="translate(1872.0,0.0)" fill="#f2f0ee" d="M336.2501220703125 -14Q207.39990234375 -14 131.1497802734375 58.5Q54.899658203125 131 54.899658203125 267.7498779296875V432.2501220703125Q54.899658203125 569 131.1497802734375 641.5Q207.39990234375 714 336.2501220703125 714Q465.100341796875 714 541.3504638671875 641.5Q617.6005859375 569 617.6005859375 432.2501220703125V267.7498779296875Q617.6005859375 131 541.3504638671875 58.5Q465.100341796875 -14 336.2501220703125 -14ZM336.2501220703125 83.00146484375Q418.6495361328125 83.00146484375 464.02423095703125 131.60107421875Q509.39892578125 180.20068359375 509.39892578125 264.4498291015625V435.5501708984375Q509.39892578125 519.79931640625 464.02423095703125 568.39892578125Q418.6495361328125 616.99853515625 336.2501220703125 616.99853515625Q254.8507080078125 616.99853515625 208.97601318359375 568.39892578125Q163.101318359375 519.79931640625 163.101318359375 435.5501708984375V264.4498291015625Q163.101318359375 180.20068359375 208.97601318359375 131.60107421875Q254.8507080078125 83.00146484375 336.2501220703125 83.00146484375Z"/>
<path transform="translate(2553.0,0.0)" fill="#f2f0ee" d="M332.699951171875 -14Q205.1497802734375 -14 130.02471923828125 58.5Q54.899658203125 131 54.899658203125 267.7498779296875V432.2501220703125Q54.899658203125 569 130.02471923828125 641.5Q205.1497802734375 714 332.699951171875 714Q459.2501220703125 714 527.6502685546875 644.199951171875Q596.0504150390625 574.39990234375 596.0504150390625 453.1497802734375V447.499755859375H489.1488037109375V456.4498291015625Q489.1488037109375 526.8492431640625 450.799072265625 571.9238891601562Q412.4493408203125 616.99853515625 332.699951171875 616.99853515625Q253.2506103515625 616.99853515625 208.17596435546875 568.39892578125Q163.101318359375 519.79931640625 163.101318359375 434.2501220703125V265.7498779296875Q163.101318359375 180.8507080078125 208.17596435546875 131.92608642578125Q253.2506103515625 83.00146484375 332.699951171875 83.00146484375Q412.4493408203125 83.00146484375 450.799072265625 128.401123046875Q489.1488037109375 173.80078125 489.1488037109375 243.5501708984375V260.500244140625H596.0504150390625V246.8502197265625Q596.0504150390625 125.60009765625 527.6502685546875 55.800048828125Q459.2501220703125 -14 332.699951171875 -14Z"/>
<path transform="translate(3204.0,0.0)" fill="#f2f0ee" d="M336.2501220703125 -14Q207.39990234375 -14 131.1497802734375 58.5Q54.899658203125 131 54.899658203125 267.7498779296875V432.2501220703125Q54.899658203125 569 131.1497802734375 641.5Q207.39990234375 714 336.2501220703125 714Q465.100341796875 714 541.3504638671875 641.5Q617.6005859375 569 617.6005859375 432.2501220703125V267.7498779296875Q617.6005859375 131 541.3504638671875 58.5Q465.100341796875 -14 336.2501220703125 -14ZM336.2501220703125 83.00146484375Q418.6495361328125 83.00146484375 464.02423095703125 131.60107421875Q509.39892578125 180.20068359375 509.39892578125 264.4498291015625V435.5501708984375Q509.39892578125 519.79931640625 464.02423095703125 568.39892578125Q418.6495361328125 616.99853515625 336.2501220703125 616.99853515625Q254.8507080078125 616.99853515625 208.97601318359375 568.39892578125Q163.101318359375 519.79931640625 163.101318359375 435.5501708984375V264.4498291015625Q163.101318359375 180.20068359375 208.97601318359375 131.60107421875Q254.8507080078125 83.00146484375 336.2501220703125 83.00146484375Z"/>
<path transform="translate(3885.0,0.0)" fill="#f2f0ee" d="M72.99951171875 0V700H366.500244140625Q432.1502685546875 700 481.32525634765625 677.3499755859375Q530.500244140625 654.699951171875 558.0252075195312 612.8749389648438Q585.5501708984375 571.0499267578125 585.5501708984375 513.3499755859375V502.0499267578125Q585.5501708984375 436.2501220703125 554.1502685546875 396.72515869140625Q522.7503662109375 357.2001953125 478.0504150390625 340.9500732421875V325.0499267578125Q516.300537109375 323.39990234375 539.00048828125 299.47479248046875Q561.700439453125 275.5496826171875 561.700439453125 232.1497802734375V0H453.498779296875V217.3494873046875Q453.498779296875 244.1492919921875 439.2489013671875 259.8492431640625Q424.9990234375 275.5491943359375 393.899169921875 275.5491943359375H181.201171875V0ZM181.201171875 373.8507080078125H355.300048828125Q413.1492919921875 373.8507080078125 445.2489013671875 403.200439453125Q477.3485107421875 432.5501708984375 477.3485107421875 483.6495361328125V491.899658203125Q477.3485107421875 542.9990234375 445.92388916015625 572.3487548828125Q414.499267578125 601.698486328125 355.300048828125 601.698486328125H181.201171875Z"/>
<path transform="translate(4525.0,0.0)" fill="#f2f0ee" d="M72.99951171875 0V700H513.5501708984375V601.698486328125H181.201171875V401.4508056640625H485.5501708984375V303.1492919921875H181.201171875V98.301513671875H518.8502197265625V0Z"/>
</g><g transform="translate(381.33,65.00) scale(0.048571,-0.048571)">
<path transform="translate(0.0,0.0)" fill="#ff5c1a" d="M303.6500244140625 -14Q226.7498779296875 -14 166.97479248046875 14.0Q107.19970703125 42 73.399658203125 94.8499755859375Q39.599609375 147.699951171875 39.599609375 221.099853515625V239.4498291015625H144.501220703125V223.3499755859375Q144.501220703125 157.20068359375 188.40087890625 118.4510498046875Q232.300537109375 79.701416015625 303.6500244140625 79.701416015625Q375.99951171875 79.701416015625 415.87420654296875 115.9510498046875Q455.7489013671875 152.20068359375 455.7489013671875 207.2501220703125V215.8502197265625Q455.7489013671875 254.8497314453125 436.77410888671875 279.0494384765625Q417.79931640625 303.2491455078125 385.72467041015625 314.8489990234375Q353.6500244140625 326.4488525390625 314.0504150390625 326.4488525390625H186.99951171875V446.8502197265625L433.298095703125 592.3984375V606.298583984375H56.899658203125V700H547.300048828125V557.998046875L311.8017578125 418.3499755859375V404.4498291015625H355.101318359375Q408.40087890625 404.4498291015625 455.17572021484375 384.22491455078125Q501.9505615234375 364 531.300537109375 323.10009765625Q560.6505126953125 282.2001953125 560.6505126953125 218.500244140625V207.2001953125Q560.6505126953125 140.2501220703125 528.700439453125 90.4500732421875Q496.7503662109375 40.6500244140625 438.82525634765625 13.32501220703125Q380.900146484375 -14 303.6500244140625 -14Z"/>
<path transform="translate(614.0,0.0)" fill="#ff5c1a" d="M46.699951171875 0V95.701416015625H141.499755859375V604.298583984375H46.699951171875V700H327.00048828125Q466.6005859375 700 541.1505126953125 629.199951171875Q615.700439453125 558.39990234375 615.700439453125 415.300048828125V284.3499755859375Q615.700439453125 141.2501220703125 541.1505126953125 70.62506103515625Q466.6005859375 0 327.00048828125 0ZM249.701416015625 98.301513671875H328.300537109375Q418.7998046875 98.301513671875 463.1492919921875 144.1512451171875Q507.498779296875 190.0009765625 507.498779296875 280.699951171875V418.9500732421875Q507.498779296875 510.6490478515625 463.1492919921875 555.998779296875Q418.7998046875 601.3485107421875 328.300537109375 601.3485107421875H249.701416015625Z"/>
</g></svg>