<svg xmlns="http://www.w3.org/2000/svg" viewBox="0 0 360 300" width="360" height="300"><clipPath id="hxs"><path d="M180.00,11.00 L132.37,38.50 L132.37,93.50 L180.00,121.00 L227.63,93.50 L227.63,38.50 Z"/></clipPath>
<rect clip-path="url(#hxs)" x="129.62" y="11.00" width="100.76" height="9.90" fill="#14161c"/>
<rect clip-path="url(#hxs)" x="129.62" y="25.30" width="100.76" height="9.90" fill="#14161c"/>
<rect clip-path="url(#hxs)" x="129.62" y="39.60" width="100.76" height="9.90" fill="#14161c"/>
<rect clip-path="url(#hxs)" x="129.62" y="53.90" width="100.76" height="9.90" fill="#14161c"/>
<rect clip-path="url(#hxs)" x="129.62" y="68.20" width="100.76" height="9.90" fill="#14161c"/>
<rect clip-path="url(#hxs)" x="129.62" y="96.80" width="100.76" height="9.90" fill="#14161c"/>
<rect clip-path="url(#hxs)" x="129.62" y="111.10" width="100.76" height="9.90" fill="#14161c"/>
<path fill="#ff5c1a" d="M132.37 82.50 L232.80 82.50 A4.95 4.95 0 0 1 232.80 92.40 L132.37 92.40 Z"/><g transform="translate(40.31,190.00) scale(0.042857,-0.042857)">
<path transform="translate(0.0,0.0)" fill="#14161c" d="M21.499755859375 0 221.2486572265625 700H410.6514892578125L610.400390625 0H498.5487060546875L452.8492431640625 165.19921875H179.0509033203125L133.3514404296875 0ZM205.501220703125 264.80078125H426.39892578125L323.900146484375 632.7489013671875H308Z"/>
<path transform="translate(628.0,0.0)" fill="#14161c" d="M334.60009765625 -14Q252.4498291015625 -14 192.69970703125 15.7501220703125Q132.9495849609375 45.500244140625 100.62457275390625 102.42535400390625Q68.299560546875 159.3504638671875 68.299560546875 240.0504150390625V700H176.501220703125V237.4503173828125Q176.501220703125 162.9510498046875 217.5509033203125 122.97625732421875Q258.6005859375 83.00146484375 334.60009765625 83.00146484375Q410.599609375 83.00146484375 451.6492919921875 122.97625732421875Q492.698974609375 162.9510498046875 492.698974609375 237.4503173828125V700H600.900634765625V240.0504150390625Q600.900634765625 159.3504638671875 568.7506103515625 102.42535400390625Q536.6005859375 45.500244140625 476.67547607421875 15.7501220703125Q416.7503662109375 -14 334.60009765625 -14Z"/>
<path transform="translate(1305.0,0.0)" fill="#14161c" d="M239.899169921875 0V601.698486328125H25.39990234375V700H562.60009765625V601.698486328125H348.100830078125V0Z"/>
<path transform="translate(1872.0,0.0)" fill="#14161c" d="M336.2501220703125 -14Q207.39990234375 -14 131.1497802734375 58.5Q54.899658203125 131 54.899658203125 267.7498779296875V432.2501220703125Q54.899658203125 569 131.1497802734375 641.5Q207.39990234375 714 336.2501220703125 714Q465.100341796875 714 541.3504638671875 641.5Q617.6005859375 569 617.6005859375 432.2501220703125V267.7498779296875Q617.6005859375 131 541.3504638671875 58.5Q465.100341796875 -14 336.2501220703125 -14ZM336.2501220703125 83.00146484375Q418.6495361328125 83.00146484375 464.02423095703125 131.60107421875Q509.39892578125 180.20068359375 509.39892578125 264.4498291015625V435.5501708984375Q509.39892578125 519.79931640625 464.02423095703125 568.39892578125Q418.6495361328125 616.99853515625 336.2501220703125 616.99853515625Q254.8507080078125 616.99853515625 208.97601318359375 568.39892578125Q163.101318359375 519.79931640625 163.101318359375 435.5501708984375V264.4498291015625Q163.101318359375 180.20068359375 208.97601318359375 131.60107421875Q254.8507080078125 83.00146484375 336.2501220703125 83.00146484375Z"/>
<path transform="translate(2553.0,0.0)" fill="#14161c" d="M332.699951171875 -14Q205.1497802734375 -14 130.02471923828125 58.5Q54.899658203125 131 54.899658203125 267.7498779296875V432.2501220703125Q54.899658203125 569 130.02471923828125 641.5Q205.1497802734375 714 332.699951171875 714Q459.2501220703125 714 527.6502685546875 644.199951171875Q596.0504150390625 574.39990234375 596.0504150390625 453.1497802734375V447.499755859375H489.1488037109375V456.4498291015625Q489.1488037109375 526.8492431640625 450.799072265625 571.9238891601562Q412.4493408203125 616.99853515625 332.699951171875 616.99853515625Q253.2506103515625 616.99853515625 208.17596435546875 568.39892578125Q163.101318359375 519.79931640625 163.101318359375 434.2501220703125V265.7498779296875Q163.101318359375 180.8507080078125 208.17596435546875 131.92608642578125Q253.2506103515625 83.00146484375 332.699951171875 83.00146484375Q412.4493408203125 83.00146484375 450.799072265625 128.401123046875Q489.1488037109375 173.80078125 489.1488037109375 243.5501708984375V260.500244140625H596.0504150390625V246.8502197265625Q596.0504150390625 125.60009765625 527.6502685546875 55.800048828125Q459.2501220703125 -14 332.699951171875 -14Z"/>
<path transform="translate(3204.0,0.0)" fill="#14161c" d="M336.2501220703125 -14Q207.39990234375 -14 131.1497802734375 58.5Q54.899658203125 131 54.899658203125 267.7498779296875V432.2501220703125Q54.899658203125 569 131.1497802734375 641.5Q207.39990234375 714 336.2501220703125 714Q465.100341796875 714 541.3504638671875 641.5Q617.6005859375 569 617.6005859375 432.2501220703125V267.7498779296875Q617.6005859375 131 541.3504638671875 58.5Q465.100341796875 -14 336.2501220703125 -14ZM336.2501220703125 83.00146484375Q418.6495361328125 83.00146484375 464.02423095703125 131.60107421875Q509.39892578125 180.20068359375 509.39892578125 264.4498291015625V435.5501708984375Q509.39892578125 519.79931640625 464.02423095703125 568.39892578125Q418.6495361328125 616.99853515625 336.2501220703125 616.99853515625Q254.8507080078125 616.99853515625 208.97601318359375 568.39892578125Q163.101318359375 519.79931640625 163.101318359375 435.5501708984375V264.4498291015625Q163.101318359375 180.20068359375 208.97601318359375 131.60107421875Q254.8507080078125 83.00146484375 336.2501220703125 83.00146484375Z"/>
<path transform="translate(3885.0,0.0)" fill="#14161c" d="M72.99951171875 0V700H366.500244140625Q432.1502685546875 700 481.32525634765625 677.3499755859375Q530.500244140625 654.699951171875 558.0252075195312 612.8749389648438Q585.5501708984375 571.0499267578125 585.5501708984375 513.3499755859375V502.0499267578125Q585.5501708984375 436.2501220703125 554.1502685546875 396.72515869140625Q522.7503662109375 357.2001953125 478.0504150390625 340.9500732421875V325.0499267578125Q516.300537109375 323.39990234375 539.00048828125 299.47479248046875Q561.700439453125 275.5496826171875 561.700439453125 232.1497802734375V0H453.498779296875V217.3494873046875Q453.498779296875 244.1492919921875 439.2489013671875 259.8492431640625Q424.9990234375 275.5491943359375 393.899169921875 275.5491943359375H181.201171875V0ZM181.201171875 373.8507080078125H355.300048828125Q413.1492919921875 373.8507080078125 445.2489013671875 403.200439453125Q477.3485107421875 432.5501708984375 477.3485107421875 483.6495361328125V491.899658203125Q477.3485107421875 542.9990234375 445.92388916015625 572.3487548828125Q414.499267578125 601.698486328125 355.300048828125 601.698486328125H181.201171875Z"/>
<path transform="translate(4525.0,0.0)" fill="#14161c" d="M72.99951171875 0V700H513.5501708984375V601.698486328125H181.201171875V401.4508056640625H485.5501708984375V303.1492919921875H181.201171875V98.301513671875H518.8502197265625V0Z"/>
</g><g transform="translate(264.54,190.00) scale(0.042857,-0.042857)">
<path transform="translate(0.0,0.0)" fill="#ff5c1a" d="M303.6500244140625 -14Q226.7498779296875 -14 166.97479248046875 14.0Q107.19970703125 42 73.399658203125 94.8499755859375Q39.599609375 147.699951171875 39.599609375 221.099853515625V239.4498291015625H144.501220703125V223.3499755859375Q144.501220703125 157.20068359375 188.40087890625 118.4510498046875Q232.300537109375 79.701416015625 303.6500244140625 79.701416015625Q375.99951171875 79.701416015625 415.87420654296875 115.9510498046875Q455.7489013671875 152.20068359375 455.7489013671875 207.2501220703125V215.8502197265625Q455.7489013671875 254.8497314453125 436.77410888671875 279.0494384765625Q417.79931640625 303.2491455078125 385.72467041015625 314.8489990234375Q353.6500244140625 326.4488525390625 314.0504150390625 326.4488525390625H186.99951171875V446.8502197265625L433.298095703125 592.3984375V606.298583984375H56.899658203125V700H547.300048828125V557.998046875L311.8017578125 418.3499755859375V404.4498291015625H355.101318359375Q408.40087890625 404.4498291015625 455.17572021484375 384.22491455078125Q501.9505615234375 364 531.300537109375 323.10009765625Q560.6505126953125 282.2001953125 560.6505126953125 218.500244140625V207.2001953125Q560.6505126953125 140.2501220703125 528.700439453125 90.4500732421875Q496.7503662109375 40.6500244140625 438.82525634765625 13.32501220703125Q380.900146484375 -14 303.6500244140625 -14Z"/>
<path transform="translate(614.0,0.0)" fill="#ff5c1a" d="M46.699951171875 0V95.701416015625H141.499755859375V604.298583984375H46.699951171875V700H327.00048828125Q466.6005859375 700 541.1505126953125 629.199951171875Q615.700439453125 558.39990234375 615.700439453125 415.300048828125V284.3499755859375Q615.700439453125 141.2501220703125 541.1505126953125 70.62506103515625Q466.6005859375 0 327.00048828125 0ZM249.701416015625 98.301513671875H328.300537109375Q418.7998046875 98.301513671875 463.1492919921875 144.1512451171875Q507.498779296875 190.0009765625 507.498779296875 280.699951171875V418.9500732421875Q507.498779296875 510.6490478515625 463.1492919921875 555.998779296875Q418.7998046875 601.3485107421875 328.300537109375 601.3485107421875H249.701416015625Z"/>
</g><g transform="translate(39.87,224.00) scale(0.015043,-0.015043)">
<path transform="translate(0.0,0.0)" fill="#6c6b67" d="M84 0V698H345Q445 698 497.5 642.0Q550 586 550 488Q550 390 497.5 334.0Q445 278 345 278H196V0ZM196 371H328Q432 371 432 467V510Q432 605 328 605H196Z"/>
<path transform="translate(810.0,0.0)" fill="#6c6b67" d="M80 0V85H244V613H80V698H520V613H356V85H520V0Z"/>
<path transform="translate(1620.0,0.0)" fill="#6c6b67" d="M86 0V698H523V604H198V401H511V307H198V94H523V0Z"/>
<path transform="translate(2430.0,0.0)" fill="#6c6b67" d="M294 -12Q203 -12 141.0 20.0Q79 52 39 105L111 174Q151 126 196.0 103.5Q241 81 298 81Q364 81 399.5 111.0Q435 141 435 197Q435 242 409.0 266.5Q383 291 320 302L244 314Q194 322 160.0 340.5Q126 359 105.0 384.5Q84 410 74.5 441.5Q65 473 65 508Q65 607 129.0 658.5Q193 710 305 710Q388 710 446.5 683.5Q505 657 541 609L471 539Q442 574 402.5 595.5Q363 617 305 617Q243 617 210.5 590.5Q178 564 178 513Q178 470 203.5 445.5Q229 421 294 410L368 397Q462 380 505.0 328.5Q548 277 548 203Q548 155 531.5 115.0Q515 75 482.5 47.0Q450 19 402.5 3.5Q355 -12 294 -12Z"/>
<path transform="translate(3240.0,0.0)" fill="#6c6b67" d="M86 0V698H523V604H198V401H511V307H198V94H523V0Z"/>
<path transform="translate(4860.0,0.0)" fill="#6c6b67" d="M462 0 409 186H187L134 0H20L224 698H377L581 0ZM302 585H294L208 279H388Z"/>
<path transform="translate(5670.0,0.0)" fill="#6c6b67" d="M181 698V269Q181 226 183.5 191.0Q186 156 198.0 131.5Q210 107 234.0 94.0Q258 81 300 81Q342 81 366.0 94.0Q390 107 402.0 131.5Q414 156 416.5 191.0Q419 226 419 269V698H531V289Q531 214 522.5 157.5Q514 101 489.0 63.5Q464 26 418.5 7.0Q373 -12 300 -12Q227 -12 181.5 7.0Q136 26 111.0 63.5Q86 101 77.5 157.5Q69 214 69 289V698Z"/>
<path transform="translate(6480.0,0.0)" fill="#6c6b67" d="M356 604V0H244V604H25V698H575V604Z"/>
<path transform="translate(7290.0,0.0)" fill="#6c6b67" d="M300 -12Q234 -12 185.5 12.5Q137 37 105.5 83.0Q74 129 59.0 196.0Q44 263 44 349Q44 434 59.0 501.5Q74 569 105.5 615.0Q137 661 185.5 685.5Q234 710 300 710Q366 710 414.5 685.5Q463 661 494.5 615.0Q526 569 541.0 501.5Q556 434 556 349Q556 263 541.0 196.0Q526 129 494.5 83.0Q463 37 414.5 12.5Q366 -12 300 -12ZM300 81Q375 81 406.0 137.5Q437 194 437 291V408Q437 504 406.0 560.5Q375 617 300 617Q225 617 194.0 560.5Q163 504 163 408V290Q163 194 194.0 137.5Q225 81 300 81Z"/>
<path transform="translate(8910.0,0.0)" fill="#6c6b67" d="M80 0V85H244V613H80V698H520V613H356V85H520V0Z"/>
<path transform="translate(9720.0,0.0)" fill="#6c6b67" d="M445 334 448 544H440L300 185L160 544H152L155 334V0H56V698H193L300 421H307L415 698H544V0H445Z"/>
<path transform="translate(10530.0,0.0)" fill="#6c6b67" d="M84 0V698H345Q445 698 497.5 642.0Q550 586 550 488Q550 390 497.5 334.0Q445 278 345 278H196V0ZM196 371H328Q432 371 432 467V510Q432 605 328 605H196Z"/>
<path transform="translate(11340.0,0.0)" fill="#6c6b67" d="M195 0H84V698H345Q445 698 497.5 642.0Q550 586 550 488Q550 408 511.0 356.0Q472 304 399 292L560 0H436L288 282H195ZM329 372Q433 372 433 467V510Q433 605 329 605H195V372Z"/>
<path transform="translate(12150.0,0.0)" fill="#6c6b67" d="M80 0V85H244V613H80V698H520V613H356V85H520V0Z"/>
<path transform="translate(12960.0,0.0)" fill="#6c6b67" d="M445 334 448 544H440L300 185L160 544H152L155 334V0H56V698H193L300 421H307L415 698H544V0H445Z"/>
<path transform="translate(13770.0,0.0)" fill="#6c6b67" d="M462 0 409 186H187L134 0H20L224 698H377L581 0ZM302 585H294L208 279H388Z"/>
<path transform="translate(14580.0,0.0)" fill="#6c6b67" d="M356 604V0H244V604H25V698H575V604Z"/>
<path transform="translate(15390.0,0.0)" fill="#6c6b67" d="M86 0V698H523V604H198V401H511V307H198V94H523V0Z"/>
<path transform="translate(17010.0,0.0)" fill="#6c6b67" d="M271 410Q338 410 370.5 438.5Q403 467 403 510V517Q403 565 371.5 590.5Q340 616 287 616Q236 616 200.5 593.0Q165 570 141 530L65 595Q81 618 102.0 639.0Q123 660 150.0 675.5Q177 691 212.0 700.5Q247 710 291 710Q340 710 382.0 698.0Q424 686 455.0 662.5Q486 639 503.0 605.5Q520 572 520 530Q520 497 509.5 470.0Q499 443 480.5 422.5Q462 402 437.0 389.0Q412 376 384 370V365Q414 359 441.0 345.5Q468 332 489.0 310.5Q510 289 522.0 259.5Q534 230 534 192Q534 146 516.0 108.5Q498 71 464.5 44.0Q431 17 384.0 2.5Q337 -12 279 -12Q230 -12 192.5 -1.5Q155 9 126.0 26.5Q97 44 75.5 66.5Q54 89 38 113L121 177Q147 135 182.5 108.5Q218 82 280 82Q346 82 381.0 112.5Q416 143 416 197V205Q416 259 379.5 287.5Q343 316 274 316H199V410Z"/>
<path transform="translate(17820.0,0.0)" fill="#6c6b67" d="M82 698H290Q424 698 488.5 609.0Q553 520 553 349Q553 178 488.5 89.0Q424 0 290 0H82ZM283 92Q360 92 397.5 143.5Q435 195 435 291V407Q435 503 397.5 554.5Q360 606 283 606H193V92Z"/>
</g></svg>